<?xml version="1.0" standalone="no"?><!DOCTYPE svg PUBLIC "-//W3C//DTD SVG 1.1//EN" "http://www.w3.org/Graphics/SVG/1.1/DTD/svg11.dtd"><svg t="1772732683993" class="icon" viewBox="0 0 1024 1024" version="1.1" xmlns="http://www.w3.org/2000/svg" p-id="13781" xmlns:xlink="http://www.w3.org/1999/xlink" width="30" height="30"><path d="M511.695211 0C229.12354 0 0.05 229.063546 0.05 511.645211c0 282.571671 229.07354 511.645211 511.645211 511.645212s511.645211-229.063546 511.645212-511.645212C1023.330429 229.063546 794.266883 0 511.695211 0z m0 950.713657c-242.495545 0-439.07844-196.572901-439.078439-439.07844C72.616772 269.139673 269.189673 72.566772 511.695211 72.566772s439.07844 196.572901 439.07844 439.078439c-0.009994 242.495545-196.582895 439.068446-439.07844 439.068446z" p-id="13782"></path><path d="M511.695211 352.679907c42.45471 0 82.380925 16.530153 112.403042 46.562263C654.120368 429.264286 670.650521 469.180508 670.650521 511.645211s-16.530153 82.380925-46.562263 112.403042c-30.022116 30.022116-69.938338 46.562263-112.403041 46.562262-42.45471 0-82.380925-16.530153-112.403041-46.562262-30.022116-30.022116-46.562263-69.938338-46.562263-112.403042 0-42.464704 16.530153-82.380925 46.562263-112.403041 30.03211-30.022116 69.948332-46.562263 112.413035-46.562263m0 237.958248c43.564049 0 79.002938-35.438889 79.002938-79.002938 0-43.564049-35.438889-79.002938-79.002938-79.002937s-79.002938 35.438889-79.002937 79.002937c0 43.564049 35.438889 79.002938 79.002937 79.002938m0-257.946341c-98.831126 0-178.943403 80.112277-178.943403 178.943403s80.112277 178.943403 178.943403 178.943403S690.638614 610.466343 690.638614 511.645211s-80.122271-178.953397-178.943403-178.953397z m0 237.958248c-32.590586 0-59.014845-26.424259-59.014844-59.014845s26.424259-59.014845 59.014844-59.014844S570.710056 479.044632 570.710056 511.635217c0 32.60058-26.424259 59.014845-59.014845 59.014845z" p-id="13783"></path><path d="M166.720714 337.968671c3.338012 0 6.725993 0.849494 9.85413 2.648422l119.198992 68.819005c8.355023 4.827124 12.042826 14.99107 8.634857 24.015693-9.174535 24.315515-14.211534 50.659822-14.211535 78.183426 0 27.333717 4.957047 53.508125 14.021648 77.67373 3.377988 9.01463-0.309815 19.158587-8.654845 23.975717l-119.228975 68.838993a19.596326 19.596326 0 0 1-9.854129 2.648422c-7.545505 0-14.811177-4.337416-18.119207-11.782981-21.926938-49.310626-34.119675-103.908102-34.119675-161.363875 0-57.665648 12.282683-112.453011 34.369526-161.913547 3.308029-7.415583 10.573701-11.743005 18.109213-11.743005m0-19.988093c-15.690653 0-29.962151 9.264481-36.368336 23.595944-23.955729 53.648042-36.10849 110.863958-36.10849 170.058695 0 58.984863 12.062814 116.000898 35.848645 169.479041 6.386196 14.361445 20.667688 23.645914 36.388324 23.645914 6.945862 0 13.811772-1.838905 19.848176-5.326827l119.228975-68.838992c16.899933-9.754189 24.205581-30.072086 17.379647-48.301227-8.454963-22.576551-12.742409-46.342394-12.742409-70.667903 0-24.485414 4.34741-48.411161 12.922302-71.127629 6.895892-18.249129-0.399762-38.597008-17.349665-48.381179L186.558896 323.317399a39.732331 39.732331 0 0 0-19.838182-5.336821zM551.151707 116.220767c0.669601 0 1.35919 0.029982 2.04878 0.109934 114.871571 11.922897 215.201804 72.766653 279.813314 161.333893 6.935868 9.514332 4.137535 22.936337-6.056392 28.82283l-119.208987 68.819005c-3.098154 1.788934-6.516118 2.658416-9.9041 2.658416-5.706601 0-11.323255-2.468529-15.160969-7.125755-33.300163-40.395936-80.641961-68.779028-134.549848-77.703712-9.564303-1.579059-16.610105-9.814154-16.610105-19.508378v-137.618021c-0.009994-10.983457 8.904695-19.788212 19.628307-19.788212m0-19.988093c-21.846986 0-39.626394 17.839373-39.626394 39.776305v137.628015c0 19.538361 14.021647 36.038532 33.340139 39.226632 47.871483 7.925279 91.345585 33.030324 122.397087 70.697885 7.545505 9.144553 18.688867 14.391427 30.581783 14.391427 6.975844 0 13.851748-1.848899 19.898146-5.336821l119.208987-68.819004a39.762313 39.762313 0 0 0 19.008677-26.184402 39.890237 39.890237 0 0 0-6.795952-31.731098 419.602042 419.602042 0 0 0-57.565708-63.941909 420.021792 420.021792 0 0 0-69.558564-50.949649 416.092133 416.092133 0 0 0-79.482652-35.868633 416.336987 416.336987 0 0 0-87.297996-18.678873c-1.35919-0.139917-2.738369-0.209875-4.107553-0.209875z" p-id="13784"></path><path d="M856.689697 338.018641c7.535511 0 14.791189 4.327422 18.119206 11.762993 22.076849 49.440548 34.349538 104.217917 34.349538 161.863577 0 57.425791-12.182743 112.013273-34.099686 161.303911-3.308029 7.445565-10.583695 11.782981-18.129201 11.782981-3.338012 0-6.725993-0.849494-9.85413-2.648422L727.836455 613.244688c-8.335035-4.81713-12.032832-14.951094-8.654844-23.965723 9.044612-24.15561 14.001659-50.31003 14.001659-77.633754 0-27.503616-5.027005-53.837929-14.191546-78.133455-3.40797-9.024624 0.289827-19.188569 8.64485-24.0057l119.198993-68.819004c3.128137-1.818916 6.516118-2.66841 9.85413-2.668411m0-19.988093c-6.945862 0-13.801778 1.838905-19.848176 5.326827L717.642528 392.176379c-16.939909 9.784172-24.235563 30.122056-17.349665 48.371185 8.564898 22.69648 12.902314 46.612233 12.902314 71.077659 0 24.305521-4.287446 48.06137-12.732415 70.617933-6.825934 18.229141 0.479714 38.537043 17.379647 48.291233l119.228975 68.838992a39.731332 39.731332 0 0 0 19.848176 5.326827c15.720635 0 30.002128-9.284469 36.388323-23.655908 23.765843-53.458155 35.818663-110.464196 35.818663-169.429071 0-59.174749-12.142767-116.380672-36.078508-170.008725-6.39619-14.311475-20.667688-23.575956-36.358341-23.575956zM325.206303 644.895834c5.716595 0 11.343243 2.478524 15.190951 7.155737 33.340139 40.625799 80.841842 69.168796 134.959604 78.103473 9.574297 1.579059 16.620099 9.814154 16.6201 19.508379v137.618021c0 10.983457-8.914689 19.788212-19.638302 19.788212-0.669601 0-1.349196-0.029982-2.038785-0.109935-115.111428-11.912903-215.631548-72.95654-280.243059-161.793619-6.925874-9.514332-4.117547-22.926343 6.066387-28.802842l119.179004-68.80901c3.098154-1.788934 6.516118-2.658416 9.9041-2.658416m0-19.988093c-6.975844 0-13.851748 1.848899-19.898146 5.33682l-119.179005 68.809011a39.765312 39.765312 0 0 0-18.998682 26.164413c-2.338607 11.023433 0.119929 22.586545 6.755975 31.71111a420.77934 420.77934 0 0 0 57.605684 64.141791 420.036783 420.036783 0 0 0 69.64851 51.099559 416.188075 416.188075 0 0 0 79.622569 35.968574 416.541865 416.541865 0 0 0 87.467895 18.708855c1.35919 0.139917 2.738369 0.209875 4.097559 0.209875 21.846986 0 39.626394-17.839373 39.626395-39.776305V749.663423c0-19.548355-14.021647-36.048526-33.350134-39.236626-48.071364-7.935273-91.675389-33.17024-122.766867-71.057671-7.535511-9.184529-18.698861-14.461385-30.631753-14.461385zM472.328662 116.210773c10.723612 0 19.638301 8.804755 19.638302 19.788212v137.61802c0 9.704219-7.045803 17.929319-16.6201 19.508379-53.937869 8.904695-101.299655 37.277794-134.619806 77.683724-3.837714 4.657226-9.454368 7.115761-15.160969 7.115761-3.387982 0-6.805946-0.869482-9.9041-2.658416l-119.208987-68.828999c-10.203921-5.886493-12.99226-19.318492-6.056392-28.832824 64.631499-88.577234 164.991714-149.410995 279.893267-161.303911 0.689589-0.059964 1.369184-0.089946 2.038785-0.089946m0-19.988093c-1.35919 0-2.738369 0.069958-4.097559 0.209875a416.4819 416.4819 0 0 0-87.317984 18.658885 415.60942 415.60942 0 0 0-79.50264 35.858639 419.967824 419.967824 0 0 0-69.578552 50.939655 420.734367 420.734367 0 0 0-57.585696 63.941909 39.890237 39.890237 0 0 0-6.795952 31.731098 39.804288 39.804288 0 0 0 19.008677 26.194396l119.208986 68.828998a39.897233 39.897233 0 0 0 19.898147 5.336821c11.892915 0 23.036277-5.246874 30.581782-14.391427 31.071491-37.677555 74.555587-62.772606 122.457052-70.677897 19.328486-3.188101 33.350133-19.688272 33.350134-39.236627v-137.61802c0.009994-21.936932-17.769415-39.776305-39.626395-39.776305z" p-id="13785"></path><path d="M698.204107 644.855857c3.387982 0 6.805946 0.869482 9.904101 2.658417l119.179004 68.80901c10.193927 5.886493 12.99226 19.28851 6.07638 28.802842-64.591523 88.837079-165.08166 149.880716-280.163105 161.823601-0.689589 0.069958-1.369184 0.109935-2.04878 0.109935-10.723612 0-19.638301-8.804755-19.638301-19.788212V749.643435c0-9.694225 7.035809-17.929319 16.610105-19.508379 54.097774-8.954666 101.579489-37.507657 134.89964-78.123461 3.837714-4.677214 9.464362-7.155737 15.180956-7.155738m0-19.988093c-11.932892 0-23.106236 5.276857-30.641746 14.47138-31.071491 37.88743-74.655527 63.122398-122.706903 71.077658-19.308498 3.198095-33.330145 19.698266-33.330145 39.226633v137.628015c0 21.926938 17.779409 39.776305 39.626394 39.776305 1.35919 0 2.748363-0.069958 4.107553-0.209875 29.742282-3.08816 59.164755-9.38441 87.447907-18.728843a416.391954 416.391954 0 0 0 79.602581-35.978568 419.466123 419.466123 0 0 0 69.628522-51.09956 420.649418 420.649418 0 0 0 57.585696-64.14179c6.636047-9.124564 9.094582-20.687676 6.755975-31.71111a39.786299 39.786299 0 0 0-18.998682-26.15442l-119.179005-68.80901a39.647382 39.647382 0 0 0-19.898147-5.346815z" p-id="13786"></path></svg>